<svg width="16" height="20" viewBox="0 0 16 20" fill="none" xmlns="http://www.w3.org/2000/svg">
<path d="M3.79004 8.37109C4.05957 8.37109 4.23242 8.21582 4.30859 7.90527L4.56348 7.14062H6.1543L6.43555 7.90527C6.4707 8.06348 6.5293 8.18066 6.61133 8.25684C6.69922 8.33301 6.80762 8.37109 6.93652 8.37109C7.09473 8.37109 7.21777 8.32715 7.30566 8.23926C7.39355 8.15137 7.4375 8.03125 7.4375 7.87891C7.4375 7.84375 7.43164 7.79688 7.41992 7.73828C7.41406 7.67969 7.39941 7.62109 7.37598 7.5625L6.1543 4.13477C6.01367 3.73047 5.74707 3.52832 5.35449 3.52832C4.97949 3.52832 4.72168 3.73047 4.58105 4.13477L3.35938 7.5625C3.3125 7.68555 3.28906 7.79102 3.28906 7.87891C3.28906 8.03125 3.33301 8.15137 3.4209 8.23926C3.51465 8.32715 3.6377 8.37109 3.79004 8.37109ZM4.77441 6.34961L5.33691 4.56543H5.38965L5.95215 6.34961H4.77441ZM9.29199 5.08398H12.2012C12.3652 5.08398 12.5 5.02832 12.6055 4.91699C12.7168 4.7998 12.7725 4.66211 12.7725 4.50391C12.7725 4.33984 12.7168 4.20508 12.6055 4.09961C12.5 3.98828 12.3652 3.93262 12.2012 3.93262H9.29199C9.12207 3.93262 8.98145 3.98828 8.87012 4.09961C8.76465 4.20508 8.71191 4.33984 8.71191 4.50391C8.71191 4.66211 8.76465 4.7998 8.87012 4.91699C8.98145 5.02832 9.12207 5.08398 9.29199 5.08398ZM9.29199 8.08984H12.2012C12.3652 8.08984 12.5 8.03418 12.6055 7.92285C12.7168 7.81152 12.7725 7.67383 12.7725 7.50977C12.7725 7.35156 12.7168 7.21973 12.6055 7.11426C12.5 7.00293 12.3652 6.94727 12.2012 6.94727H9.29199C9.12207 6.94727 8.98145 7.00293 8.87012 7.11426C8.76465 7.21973 8.71191 7.35156 8.71191 7.50977C8.71191 7.67383 8.76465 7.81152 8.87012 7.92285C8.98145 8.03418 9.12207 8.08984 9.29199 8.08984ZM3.20117 15.5518H4.19434L5.33691 14.3916C5.4834 14.251 5.65332 14.1807 5.84668 14.1807C6.03418 14.1807 6.20996 14.251 6.37402 14.3916L7.08594 15.0508L8.87891 13.46C8.97266 13.3721 9.07227 13.3105 9.17773 13.2754C9.2832 13.2344 9.38281 13.2139 9.47656 13.2139C9.58789 13.2139 9.69336 13.2314 9.79297 13.2666C9.89844 13.3018 9.99219 13.3662 10.0742 13.46L11.8057 15.4551H12.7988V11.333C12.7988 10.5596 12.4092 10.1729 11.6299 10.1729H4.37891C4.00977 10.1729 3.71973 10.2725 3.50879 10.4717C3.30371 10.665 3.20117 10.9521 3.20117 11.333V15.5518ZM6.44434 13.46C6.18652 13.46 5.96387 13.3691 5.77637 13.1875C5.59473 13 5.50391 12.7773 5.50391 12.5195C5.50391 12.2617 5.59473 12.0391 5.77637 11.8516C5.96387 11.6641 6.18652 11.5762 6.44434 11.5879C6.70215 11.5938 6.92188 11.6875 7.10352 11.8691C7.29102 12.0449 7.38477 12.2617 7.38477 12.5195C7.38477 12.7773 7.29102 13 7.10352 13.1875C6.92188 13.3691 6.70215 13.46 6.44434 13.46ZM0.458984 16.29V3.02734C0.458984 2.08398 0.699219 1.36914 1.17969 0.882812C1.66016 0.390625 2.37207 0.144531 3.31543 0.144531H12.6758C13.6191 0.144531 14.3311 0.390625 14.8115 0.882812C15.292 1.36914 15.5322 2.08398 15.5322 3.02734V16.29C15.5322 17.2393 15.292 17.957 14.8115 18.4434C14.3311 18.9297 13.6191 19.1729 12.6758 19.1729H3.31543C2.37207 19.1729 1.66016 18.9297 1.17969 18.4434C0.699219 17.957 0.458984 17.2393 0.458984 16.29Z" fill="#838B91"/>
</svg>
