<svg width="23" height="22" viewBox="0 0 23 22" fill="none" xmlns="http://www.w3.org/2000/svg">
<path d="M11.2583 21.8145C10.0741 21.8145 8.94238 21.6291 7.86328 21.2583C6.78971 20.8931 5.80192 20.3784 4.8999 19.7144C3.99788 19.0503 3.21484 18.2673 2.55078 17.3652C1.88672 16.4632 1.3693 15.4727 0.998535 14.3936C0.633301 13.3145 0.450684 12.1855 0.450684 11.0068C0.450684 9.82259 0.633301 8.69368 0.998535 7.62012C1.36377 6.54102 1.87842 5.55046 2.54248 4.64844C3.21208 3.74642 3.99512 2.96338 4.8916 2.29932C5.79362 1.62972 6.78141 1.1123 7.85498 0.74707C8.93408 0.376302 10.0658 0.190918 11.25 0.190918C12.4342 0.190918 13.5659 0.376302 14.645 0.74707C15.7241 1.1123 16.7147 1.62972 17.6167 2.29932C18.5187 2.96338 19.3018 3.74642 19.9658 4.64844C20.6354 5.55046 21.1528 6.54102 21.5181 7.62012C21.8888 8.69368 22.0742 9.82259 22.0742 11.0068C22.0742 12.1855 21.8888 13.3145 21.5181 14.3936C21.1528 15.4727 20.6354 16.4632 19.9658 17.3652C19.3018 18.2673 18.5187 19.0503 17.6167 19.7144C16.7147 20.3784 15.7241 20.8931 14.645 21.2583C13.5715 21.6291 12.4425 21.8145 11.2583 21.8145ZM6.14502 11.0151C6.14502 11.242 6.21973 11.4274 6.36914 11.5713C6.52409 11.7152 6.71777 11.7871 6.9502 11.7871H10.4697V15.3149C10.4697 15.5418 10.5417 15.7327 10.6855 15.8877C10.8294 16.0371 11.0148 16.1118 11.2417 16.1118C11.4797 16.1118 11.6733 16.0371 11.8228 15.8877C11.9722 15.7383 12.0469 15.5474 12.0469 15.3149V11.7871H15.5664C15.7988 11.7871 15.9897 11.7152 16.1392 11.5713C16.2941 11.4274 16.3716 11.242 16.3716 11.0151C16.3716 10.7772 16.2969 10.5835 16.1475 10.4341C15.998 10.2847 15.8044 10.21 15.5664 10.21H12.0469V6.69043C12.0469 6.45801 11.9722 6.26709 11.8228 6.11768C11.6733 5.96273 11.4797 5.88525 11.2417 5.88525C11.0148 5.88525 10.8294 5.96273 10.6855 6.11768C10.5417 6.26709 10.4697 6.45801 10.4697 6.69043V10.21H6.9502C6.71224 10.21 6.51855 10.2847 6.36914 10.4341C6.21973 10.5835 6.14502 10.7772 6.14502 11.0151Z" fill="#396ADD"/>
</svg>
