<svg width="16" height="20" viewBox="0 0 16 20" fill="none" xmlns="http://www.w3.org/2000/svg">
<path d="M3.31543 19.1729C2.37207 19.1729 1.66016 18.9297 1.17969 18.4434C0.699219 17.957 0.458984 17.2393 0.458984 16.29V3.02734C0.458984 2.08398 0.699219 1.36914 1.17969 0.882812C1.66016 0.390625 2.37207 0.144531 3.31543 0.144531H7.32324V6.78906C7.32324 7.87891 7.86816 8.42383 8.95801 8.42383H15.5322V16.29C15.5322 17.2334 15.292 17.9482 14.8115 18.4346C14.3311 18.9268 13.6191 19.1729 12.6758 19.1729H3.31543ZM9.11621 7.14062C8.78223 7.14062 8.61523 6.97363 8.61523 6.63965V0.232422C8.81445 0.255859 9.01367 0.337891 9.21289 0.478516C9.41797 0.619141 9.62891 0.800781 9.8457 1.02344L14.6445 5.89258C14.873 6.12695 15.0547 6.34375 15.1895 6.54297C15.3301 6.74219 15.4121 6.94141 15.4355 7.14062H9.11621Z" fill="#838B91"/>
</svg>
